<svg xmlns="http://www.w3.org/2000/svg" xmlns:xlink="http://www.w3.org/1999/xlink" version="1.1" id="Layer_1" x="0px" y="0px" viewBox="0 0 512 512" style="enable-background:new 0 0 512 512;" xml:space="preserve">
<polygon style="fill:#E09D70;" points="341.515,206.498 266.365,512 245.633,512 170.485,206.498 "/>
<path style="fill:#D18B5C;" d="M340.127,212.138l-1.529,6.209l-22.185-11.848h13.152L340.127,212.138L340.127,212.138z   M335.585,230.595l-45.114-24.097h-13.152l56.74,30.305L335.585,230.595L335.585,230.595z M331.045,249.052l-79.666-42.554h-13.154  l91.294,48.762L331.045,249.052L331.045,249.052z M326.506,267.507l-114.218-61.008h-13.154l125.846,67.217L326.506,267.507  L326.506,267.507z M321.966,285.964l-148.773-79.465h-2.708l1.579,6.422l148.373,79.252L321.966,285.964L321.966,285.964z   M317.426,304.421l-1.526,6.209l-137.925-73.668l-1.986-8.086L317.426,304.421L317.426,304.421z M312.886,322.875l-1.529,6.209  L183.891,261l-1.989-8.086L312.886,322.875L312.886,322.875z M308.347,341.332l-1.529,6.209l-117.014-62.5l-1.989-8.086  L308.347,341.332L308.347,341.332z M303.807,359.789l-110.076-58.796l1.986,8.089l106.561,56.919L303.807,359.789L303.807,359.789z   M299.267,378.244l-99.625-53.213l1.989,8.089l96.108,51.333L299.267,378.244L299.267,378.244z M294.725,396.701l-1.526,6.209  l-85.652-45.751l-1.989-8.086L294.725,396.701L294.725,396.701z M290.185,415.156l-1.526,6.209l-75.199-40.167l-1.989-8.086  L290.185,415.156L290.185,415.156z M285.645,433.613l-68.264-36.463l1.989,8.089l64.749,34.584L285.645,433.613L285.645,433.613z   M281.106,452.07l-57.808-30.88l1.989,8.086l54.291,29L281.106,452.07L281.106,452.07z M276.566,470.524l-1.526,6.209  l-43.842-23.416l-1.989-8.086L276.566,470.524L276.566,470.524z M272.026,488.981l-36.902-19.709l1.989,8.086l33.384,17.832  L272.026,488.981L272.026,488.981z M267.486,507.438L266.365,512h-3.491l-19.845-10.601l-1.989-8.086L267.486,507.438z"/>
<path style="fill:#F7C29E;" d="M341.515,206.498l-1.655,6.727l-148.245,79.182l-1.526-6.209l149.214-79.7H341.515L341.515,206.498z   M335.936,229.178L194.63,304.653l1.529,6.209l137.789-73.598L335.936,229.178L335.936,229.178z M330.021,253.216l-130.854,69.892  l1.529,6.209l127.334-68.014L330.021,253.216L330.021,253.216z M324.107,277.257l-120.398,64.308l1.529,6.209l116.881-62.43  L324.107,277.257L324.107,277.257z M318.196,301.296l-1.989,8.089L209.78,366.231l-1.529-6.209L318.196,301.296L318.196,301.296z   M312.281,325.337l-1.989,8.086l-95.975,51.262l-1.526-6.209L312.281,325.337L312.281,325.337z M306.367,349.375l-89.037,47.559  l1.526,6.209l85.521-45.679L306.367,349.375L306.367,349.375z M300.454,373.416l-78.586,41.975l1.531,6.209l75.066-40.095  L300.454,373.416L300.454,373.416z M294.541,397.454l-1.989,8.089l-64.615,34.511l-1.526-6.209L294.541,397.454L294.541,397.454z   M288.63,421.495l-1.989,8.086l-54.16,28.927l-1.529-6.209L288.63,421.495L288.63,421.495z M282.714,445.536l-47.224,25.225  l1.526,6.209l43.709-23.346L282.714,445.536L282.714,445.536z M276.801,469.575l-1.989,8.089l-33.254,17.762l-1.529-6.209  L276.801,469.575L276.801,469.575z M270.885,493.615l-26.316,14.058l1.063,4.327h3.987l19.276-10.296L270.885,493.615  L270.885,493.615z M187.079,273.948l126.282-67.452h-13.152L185.55,267.739L187.079,273.948L187.079,273.948z M182.536,255.494  l91.73-48.995h-13.152l-80.105,42.786L182.536,255.494L182.536,255.494z M177.997,237.039l57.178-30.54h-13.152l-45.553,24.332  L177.997,237.039L177.997,237.039z M173.457,218.582l22.624-12.083h-13.152l-10.998,5.875L173.457,218.582z"/>
<g>
	<path style="fill:#FE7E8D;" d="M305.793,208.279c-45.674,20.235-152.753,26.299-144.911-22.258   C168.721,137.465,358.778,166.367,305.793,208.279z"/>
	<path style="fill:#FCE3C8;" d="M196.129,134.87c-44.383,0.916-60.749,34.618-24.31,57.946   c47.19,30.213,181.36,37.478,188.078,7.825C366.615,170.989,262.259,133.504,196.129,134.87z"/>
	<path style="fill:#FE7E8D;" d="M219.303,100.444c-44.039-2.12-81.287,28.421-36.035,55.412   c49.761,29.68,124.417-1.589,173.347,32.025C368.09,158.686,284.916,103.603,219.303,100.444z"/>
	<path style="fill:#FCE3C8;" d="M345.641,158.053c-46.747-38.411-85.296-18.772-132.356-36.427   c-47.059-17.658-33.498-54.317-9.731-56.372c0.94-16.628-5.497-44.341,44.761-64.996c5.099,30.257,10.783,69.48,46.483,83.598   S354.67,132.288,345.641,158.053z"/>
	<path style="fill:#FE7E8D;" d="M199.53,58.51c-4.763-17.498,9.448-40.868,40.504-55.601c5.649-2.679,12.636-5.531,13.36,1.495   c2.938,28.566,9.516,66.839,41.405,79.453c9.315,3.685,17.895,9,25.286,15.325C293.375,81.783,207.34,87.2,199.53,58.51z"/>
	<g>
		
			<path style="fill:none;stroke:#FFABB5;stroke-width:2.4;stroke-linecap:round;stroke-linejoin:round;stroke-miterlimit:22.926;" d="    M224.606,24.453c-5.412,3.217-12.277,11.945-15.882,22.26"/>
		
			<path style="fill:none;stroke:#FFFFFF;stroke-width:2.4;stroke-linecap:round;stroke-linejoin:round;stroke-miterlimit:22.926;" d="    M209.218,78.075c-6.097,0.501-14.433,10.783-14.348,20.114"/>
		
			<path style="fill:none;stroke:#FFABB5;stroke-width:2.4;stroke-linecap:round;stroke-linejoin:round;stroke-miterlimit:22.926;" d="    M183.459,117.346c-4.658,0.383-11.03,8.239-10.964,15.371"/>
		
			<path style="fill:none;stroke:#FFFFFF;stroke-width:2.4;stroke-linecap:round;stroke-linejoin:round;stroke-miterlimit:22.926;" d="    M166.391,152.394c-4.835,1.759-10.654,10.153-10.569,19.484"/>
	</g>
</g>
<g>
</g>
<g>
</g>
<g>
</g>
<g>
</g>
<g>
</g>
<g>
</g>
<g>
</g>
<g>
</g>
<g>
</g>
<g>
</g>
<g>
</g>
<g>
</g>
<g>
</g>
<g>
</g>
<g>
</g>
</svg>